<svg xmlns="http://www.w3.org/2000/svg" version="1.1" xmlns:xlink="http://www.w3.org/1999/xlink" xmlns:svgjs="http://svgjs.dev/svgjs" width="2000" height="1247" viewBox="0 0 2000 1247"><g transform="matrix(1,0,0,1,-1.2121212121212466,0.5704898785427304)"><svg viewBox="0 0 396 247" data-background-color="#fffafe" preserveAspectRatio="xMidYMid meet" height="1247" width="2000" xmlns="http://www.w3.org/2000/svg" xmlns:xlink="http://www.w3.org/1999/xlink"><g id="tight-bounds" transform="matrix(1,0,0,1,0.2400000000000091,-0.10000000000005116)"><svg viewBox="0 0 395.52 247.2" height="247.2" width="395.52"><g><svg></svg></g><g><svg viewBox="0 0 395.52 247.2" height="247.2" width="395.52"><mask id="7fe5c295-e809-4b94-a8ac-a9f9af9329c2"><rect width="395.52" height="247.2" fill="white"></rect><g transform="matrix(1,0,0,1,2.842170943040401e-14,76.95180161338513)" id="clone"><svg viewBox="0 0 395.5199999999999 93.29639677322974" height="93.29639677322974" width="395.5199999999999"><g><svg viewBox="0 0 395.5199999999999 93.29639677322974" height="93.29639677322974" width="395.5199999999999"><g><svg viewBox="0 0 395.5199999999999 93.29639677322974" height="93.29639677322974" width="395.5199999999999"><g><svg viewBox="0 0 395.5199999999999 93.29639677322974" height="93.29639677322974" width="395.5199999999999"><g id="SvgjsG6863"><svg viewBox="0 0 395.5199999999999 93.29639677322974" height="93.29639677322974" width="395.5199999999999" id="SvgjsSvg6862"><g><svg viewBox="0 0 395.5199999999999 93.29639677322974" height="93.29639677322974" width="395.5199999999999"><g transform="matrix(1,0,0,1,0,0)"><svg width="395.5199999999999" viewBox="-1.05 -34.980000000000004 197.68 47.26" height="93.29639677322974" data-palette-color="#ffcaca"><path d="M1.95 0L13.92 0 13.92-1.27 10.06-1.27 10.06-13.43 14.7-13.43 22.51 0 29.88 0Q29.88-1.07 29.3-1.22L29.3-1.22Q29.05-1.27 28.71-1.27L28.71-1.27 26.86-1.27 18.99-13.87Q23.63-14.99 25.34-18.7L25.34-18.7Q25.98-20.17 25.98-21.68L25.98-21.68Q25.98-25.34 22.8-27.54L22.8-27.54Q20.21-29.3 16.41-29.3L16.41-29.3 1.95-29.3 1.95-28.03 5.86-28.03 5.86-1.27 1.95-1.27 1.95 0ZM10.06-28.03L14.94-28.03Q19.14-28.03 20.75-24.61L20.75-24.61Q21.39-23.19 21.39-21.63L21.39-21.63Q21.39-18.12 18.95-16.16L18.95-16.16Q17.29-14.84 15.09-14.84L15.09-14.84 10.06-14.84 10.06-28.03ZM42.04-20.02L42.04-20.02Q45.46-20.02 46.58-17.14L46.58-17.14Q46.97-16.21 46.97-15.14L46.97-15.14Q46.97-12.7 44.63-12.16L44.63-12.16Q43.41-11.91 41.16-11.96L41.16-11.96 35.98-12.11Q36.23-17.72 39.65-19.43L39.65-19.43Q40.77-20.02 42.04-20.02ZM50.53-4.69L50.53-4.69 49.31-5.13Q47.6-1.42 43.8-0.93L43.8-0.93Q43.31-0.88 42.87-0.88L42.87-0.88Q37.74-0.88 36.42-6.98L36.42-6.98Q36.03-8.69 35.98-10.74L35.98-10.74 41.84-10.64Q47.8-10.55 49.51-11.77L49.51-11.77Q50.83-12.74 50.83-14.55L50.83-14.55Q50.83-17.87 47.46-19.82L47.46-19.82Q45.07-21.24 41.94-21.24L41.94-21.24Q35.84-21.24 33.2-16.16L33.2-16.16Q31.83-13.53 31.83-10.21L31.83-10.21Q31.83-4.15 36.18-1.22L36.18-1.22Q38.77 0.49 42.09 0.49L42.09 0.49Q47.36 0.49 49.85-3.32L49.85-3.32Q50.24-4 50.53-4.69ZM64.79-1.22L64.79-1.22 61.37-1.22 61.37-19.53 66.99-19.53 66.99-20.75 61.37-20.75 61.37-21.04Q61.37-29.39 63.86-30.52L63.86-30.52Q64.4-30.76 65.03-30.76L65.03-30.76Q66.55-30.76 67.57-28.96L67.57-28.96Q68.45-27.39 68.84-27.1L68.84-27.1Q69.23-26.81 69.72-26.81L69.72-26.81Q71.33-26.81 71.63-28.17L71.63-28.17Q71.67-28.42 71.67-28.61L71.67-28.61Q71.67-30.42 69.23-31.45L69.23-31.45Q67.82-31.98 66.06-31.98L66.06-31.98Q61.47-31.98 59.22-28.17L59.22-28.17Q57.71-25.54 57.71-21.53L57.71-21.53 57.71-20.75 54.29-20.75 54.29-19.53 57.71-19.53 57.71-4.15Q57.71-1.9 56.44-1.46L56.44-1.46Q55.71-1.22 54.05-1.22L54.05-1.22 54.05 0 66.01 0Q66.01-1.07 65.28-1.17L65.28-1.17Q65.08-1.22 64.79-1.22ZM78.95-1.22L78.95-1.22 76.31-1.22 76.31-31.74 68.99-31.74 68.99-30.52 72.65-30.52 72.65-4.15Q72.65-1.9 71.38-1.46L71.38-1.46Q70.65-1.22 68.99-1.22L68.99-1.22 68.99 0 80.17 0Q80.17-1.07 79.44-1.17L79.44-1.17Q79.24-1.22 78.95-1.22ZM93.64-20.02L93.64-20.02Q97.06-20.02 98.18-17.14L98.18-17.14Q98.57-16.21 98.57-15.14L98.57-15.14Q98.57-12.7 96.23-12.16L96.23-12.16Q95.01-11.91 92.76-11.96L92.76-11.96 87.59-12.11Q87.83-17.72 91.25-19.43L91.25-19.43Q92.37-20.02 93.64-20.02ZM102.14-4.69L102.14-4.69 100.92-5.13Q99.21-1.42 95.4-0.93L95.4-0.93Q94.91-0.88 94.47-0.88L94.47-0.88Q89.35-0.88 88.03-6.98L88.03-6.98Q87.64-8.69 87.59-10.74L87.59-10.74 93.45-10.64Q99.4-10.55 101.11-11.77L101.11-11.77Q102.43-12.74 102.43-14.55L102.43-14.55Q102.43-17.87 99.06-19.82L99.06-19.82Q96.67-21.24 93.54-21.24L93.54-21.24Q87.44-21.24 84.8-16.16L84.8-16.16Q83.44-13.53 83.44-10.21L83.44-10.21Q83.44-4.15 87.78-1.22L87.78-1.22Q90.37 0.49 93.69 0.49L93.69 0.49Q98.96 0.49 101.45-3.32L101.45-3.32Q101.85-4 102.14-4.69ZM106.09-10.16L106.09-10.16Q106.09-4.25 110.44-1.32L110.44-1.32Q113.12 0.49 116.54 0.49L116.54 0.49Q121.62 0.49 124.21-3.08L124.21-3.08Q124.79-3.91 125.13-4.74L125.13-4.74 123.86-5.18Q122.06-1.32 117.91-0.93L117.91-0.93Q117.52-0.88 117.13-0.88L117.13-0.88Q113.66-0.88 111.71-4.35L111.71-4.35Q110.24-6.98 110.24-10.6L110.24-10.6Q110.24-16.99 113.61-19.14L113.61-19.14Q115.03-20.02 116.74-20.02L116.74-20.02Q119.37-20.02 119.91-17.97L119.91-17.97Q120.01-17.58 120.15-16.75L120.15-16.75Q120.45-14.79 121.23-14.31L121.23-14.31Q121.72-14.06 122.3-14.01L122.3-14.01Q123.96-13.92 124.4-15.38L124.4-15.38Q124.5-15.72 124.5-16.02L124.5-16.02Q124.5-18.51 121.33-20.12L121.33-20.12Q119.08-21.24 116.44-21.24L116.44-21.24Q109.9-21.24 107.31-15.92L107.31-15.92Q106.09-13.38 106.09-10.16ZM126.35-20.75L126.35-19.53 129.77-19.53 129.77-5.76Q130.11 0.34 135.39 0.54L135.39 0.54Q139.88 0.54 141-4.98L141-4.98Q141-5.03 141-5.08L141-5.08 139.68-5.32Q138.46-1.27 136.12-0.93L136.12-0.93Q133.48-1.03 133.43-4.69L133.43-4.69 133.43-19.53 141-19.53 141-20.75 133.43-20.75 133.43-26.42 129.77-25.39 129.77-20.75 126.35-20.75ZM152.72-1.22L152.72-1.22 150.28-1.22 150.28-20.75 142.71-20.75 142.71-19.53 146.61-19.53 146.61-4.15Q146.61-1.9 145.1-1.42L145.1-1.42Q144.37-1.22 142.71-1.22L142.71-1.22 142.71 0 153.94 0Q153.94-1.07 153.21-1.17L153.21-1.17Q152.96-1.22 152.72-1.22ZM150.86-27.88L150.86-27.88Q150.86-29.59 149.35-30.32L149.35-30.32Q148.76-30.57 148.22-30.57L148.22-30.57Q146.52-30.57 145.78-29L145.78-29Q145.54-28.47 145.54-27.88L145.54-27.88Q145.54-26.07 147.15-25.39L147.15-25.39Q147.69-25.2 148.22-25.2L148.22-25.2Q149.93-25.2 150.62-26.76L150.62-26.76Q150.86-27.29 150.86-27.88ZM167.66-1.22L167.66-1.22 164.24-1.22 164.24-19.53 169.85-19.53 169.85-20.75 164.24-20.75 164.24-21.04Q164.24-29.39 166.73-30.52L166.73-30.52Q167.27-30.76 167.9-30.76L167.9-30.76Q169.41-30.76 170.44-28.96L170.44-28.96Q171.32-27.39 171.71-27.1L171.71-27.1Q172.1-26.81 172.59-26.81L172.59-26.81Q174.2-26.81 174.49-28.17L174.49-28.17Q174.54-28.42 174.54-28.61L174.54-28.61Q174.54-30.42 172.1-31.45L172.1-31.45Q170.68-31.98 168.93-31.98L168.93-31.98Q164.34-31.98 162.09-28.17L162.09-28.17Q160.58-25.54 160.58-21.53L160.58-21.53 160.58-20.75 157.16-20.75 157.16-19.53 160.58-19.53 160.58-4.15Q160.58-1.9 159.31-1.46L159.31-1.46Q158.57-1.22 156.91-1.22L156.91-1.22 156.91 0 168.88 0Q168.88-1.07 168.14-1.17L168.14-1.17Q167.95-1.22 167.66-1.22ZM175.27 7.76L175.27 7.76Q174.49 7.76 174.1 6.59L174.1 6.59Q173.56 5.13 173.07 4.79L173.07 4.79Q172.63 4.49 172.05 4.49L172.05 4.49Q170.49 4.49 170.24 5.86L170.24 5.86Q170.19 6.05 170.19 6.2L170.19 6.2Q170.19 8.06 172.34 8.89L172.34 8.89Q173.32 9.28 174.39 9.28L174.39 9.28Q178.25 9.28 181.08 4.54L181.08 4.54Q182.25 2.64 183.33 0L183.33 0 190.55-17.82Q191.04-19.19 191.63-19.38L191.63-19.38Q191.97-19.48 192.41-19.48L192.41-19.48Q193.39-19.48 193.53-20.02L193.53-20.02Q193.63-20.31 193.63-20.75L193.63-20.75 186.21-20.75 186.21-19.48 189.77-19.48 183.52-3.86 176.83-19.48 180.1-19.48 180.1-20.75 170.58-20.75 170.58-19.48 172.98-19.48 181.76 0Q179.03 6.45 176.64 7.47L176.64 7.47Q175.95 7.76 175.27 7.76Z" opacity="1" transform="matrix(1,0,0,1,0,0)" fill="black" class="wordmark-text-0" id="SvgjsPath6861" stroke-width="5" stroke="black" stroke-linejoin="round"></path></svg></g></svg></g></svg></g></svg></g></svg></g></svg></g></svg></g></mask><g mask="url(#7fe5c295-e809-4b94-a8ac-a9f9af9329c2)"><g><path d="M79.927 247.213h101v-10.716h-32.57v-102.603h39.151l65.899 113.319h62.186c0-6.019-1.631-9.45-4.894-10.294v0c-1.406-0.281-3.066-0.422-4.978-0.422v0h-15.61l-66.405-106.316c26.101-6.3 43.961-19.885 53.58-40.754v0c3.6-8.269 5.4-16.651 5.4-25.144v0c0-20.588-8.944-37.07-26.832-49.446v0c-14.569-9.9-32.542-14.85-53.917-14.85v0h-122.01v10.716h32.991v225.794h-32.991zM148.357 10.703h41.176c23.626 0 39.967 9.619 49.024 28.857v0c3.6 7.988 5.4 16.369 5.4 25.144v0c0 19.744-6.863 35.129-20.588 46.155v0c-9.338 7.425-20.194 11.138-32.57 11.138v0h-42.442z" fill="#ffcaca" fill-rule="nonzero" stroke="none" stroke-width="1" stroke-linecap="butt" stroke-linejoin="miter" stroke-miterlimit="10" stroke-dasharray="" stroke-dashoffset="0" font-family="none" font-weight="none" font-size="none" text-anchor="none" style="mix-blend-mode: normal" data-fill-palette-color="tertiary"></path></g></g><g transform="matrix(1,0,0,1,2.842170943040401e-14,76.95180161338513)"><svg viewBox="0 0 395.5199999999999 93.29639677322974" height="93.29639677322974" width="395.5199999999999"><g><svg viewBox="0 0 395.5199999999999 93.29639677322974" height="93.29639677322974" width="395.5199999999999"><g><svg viewBox="0 0 395.5199999999999 93.29639677322974" height="93.29639677322974" width="395.5199999999999"><g><svg viewBox="0 0 395.5199999999999 93.29639677322974" height="93.29639677322974" width="395.5199999999999"><g id="textblocktransform"><svg viewBox="0 0 395.5199999999999 93.29639677322974" height="93.29639677322974" width="395.5199999999999" id="textblock"><g><svg viewBox="0 0 395.5199999999999 93.29639677322974" height="93.29639677322974" width="395.5199999999999"><g transform="matrix(1,0,0,1,0,0)"><svg width="395.5199999999999" viewBox="-1.05 -34.980000000000004 197.68 47.26" height="93.29639677322974" data-palette-color="#ffcaca"><path d="M1.95 0L13.92 0 13.92-1.27 10.06-1.27 10.06-13.43 14.7-13.43 22.51 0 29.88 0Q29.88-1.07 29.3-1.22L29.3-1.22Q29.05-1.27 28.71-1.27L28.71-1.27 26.86-1.27 18.99-13.87Q23.63-14.99 25.34-18.7L25.34-18.7Q25.98-20.17 25.98-21.68L25.98-21.68Q25.98-25.34 22.8-27.54L22.8-27.54Q20.21-29.3 16.41-29.3L16.41-29.3 1.95-29.3 1.95-28.03 5.86-28.03 5.86-1.27 1.95-1.27 1.95 0ZM10.06-28.03L14.94-28.03Q19.14-28.03 20.75-24.61L20.75-24.61Q21.39-23.19 21.39-21.63L21.39-21.63Q21.39-18.12 18.95-16.16L18.95-16.16Q17.29-14.84 15.09-14.84L15.09-14.84 10.06-14.84 10.06-28.03ZM42.04-20.02L42.04-20.02Q45.46-20.02 46.58-17.14L46.58-17.14Q46.97-16.21 46.97-15.14L46.97-15.14Q46.97-12.7 44.63-12.16L44.63-12.16Q43.41-11.91 41.16-11.96L41.16-11.96 35.98-12.11Q36.23-17.72 39.65-19.43L39.65-19.43Q40.77-20.02 42.04-20.02ZM50.53-4.69L50.53-4.69 49.31-5.13Q47.6-1.42 43.8-0.93L43.8-0.93Q43.31-0.88 42.87-0.88L42.87-0.88Q37.74-0.88 36.42-6.98L36.42-6.98Q36.03-8.69 35.98-10.74L35.98-10.74 41.84-10.64Q47.8-10.55 49.51-11.77L49.51-11.77Q50.83-12.74 50.83-14.55L50.83-14.55Q50.83-17.87 47.46-19.82L47.46-19.82Q45.07-21.24 41.94-21.24L41.94-21.24Q35.84-21.24 33.2-16.16L33.2-16.16Q31.83-13.53 31.83-10.21L31.83-10.21Q31.83-4.15 36.18-1.22L36.18-1.22Q38.77 0.49 42.09 0.49L42.09 0.49Q47.36 0.49 49.85-3.32L49.85-3.32Q50.24-4 50.53-4.69ZM64.79-1.22L64.79-1.22 61.37-1.22 61.37-19.53 66.99-19.53 66.99-20.75 61.37-20.75 61.37-21.04Q61.37-29.39 63.86-30.52L63.86-30.52Q64.4-30.76 65.03-30.76L65.03-30.76Q66.55-30.76 67.57-28.96L67.57-28.96Q68.45-27.39 68.84-27.1L68.84-27.1Q69.23-26.81 69.72-26.81L69.72-26.81Q71.33-26.81 71.63-28.17L71.63-28.17Q71.67-28.42 71.67-28.61L71.67-28.61Q71.67-30.42 69.23-31.45L69.23-31.45Q67.82-31.98 66.06-31.98L66.06-31.98Q61.47-31.98 59.22-28.17L59.22-28.17Q57.71-25.54 57.71-21.53L57.71-21.53 57.71-20.75 54.29-20.75 54.29-19.53 57.71-19.53 57.71-4.15Q57.71-1.9 56.44-1.46L56.44-1.46Q55.71-1.22 54.05-1.22L54.05-1.22 54.05 0 66.01 0Q66.01-1.07 65.28-1.17L65.28-1.17Q65.08-1.22 64.79-1.22ZM78.95-1.22L78.95-1.22 76.31-1.22 76.31-31.74 68.99-31.74 68.99-30.52 72.65-30.52 72.65-4.15Q72.65-1.9 71.38-1.46L71.38-1.46Q70.65-1.22 68.99-1.22L68.99-1.22 68.99 0 80.17 0Q80.17-1.07 79.44-1.17L79.44-1.17Q79.24-1.22 78.95-1.22ZM93.64-20.02L93.64-20.02Q97.06-20.02 98.18-17.14L98.18-17.14Q98.57-16.21 98.57-15.14L98.57-15.14Q98.57-12.7 96.23-12.16L96.23-12.16Q95.01-11.91 92.76-11.96L92.76-11.96 87.59-12.11Q87.83-17.72 91.25-19.43L91.25-19.43Q92.37-20.02 93.64-20.02ZM102.14-4.69L102.14-4.69 100.92-5.13Q99.21-1.42 95.4-0.93L95.4-0.93Q94.91-0.88 94.47-0.88L94.47-0.88Q89.35-0.88 88.03-6.98L88.03-6.98Q87.64-8.69 87.59-10.74L87.59-10.74 93.45-10.64Q99.4-10.55 101.11-11.77L101.11-11.77Q102.43-12.74 102.43-14.55L102.43-14.55Q102.43-17.87 99.06-19.82L99.06-19.82Q96.67-21.24 93.54-21.24L93.54-21.24Q87.44-21.24 84.8-16.16L84.8-16.16Q83.44-13.53 83.44-10.21L83.44-10.21Q83.44-4.15 87.78-1.22L87.78-1.22Q90.37 0.49 93.69 0.49L93.69 0.49Q98.96 0.49 101.45-3.32L101.45-3.32Q101.85-4 102.14-4.69ZM106.09-10.16L106.09-10.16Q106.09-4.25 110.44-1.32L110.44-1.32Q113.12 0.49 116.54 0.49L116.54 0.49Q121.62 0.49 124.21-3.08L124.21-3.08Q124.79-3.91 125.13-4.74L125.13-4.74 123.86-5.18Q122.06-1.32 117.91-0.93L117.91-0.93Q117.52-0.88 117.13-0.88L117.13-0.88Q113.66-0.88 111.71-4.35L111.71-4.35Q110.24-6.98 110.24-10.6L110.24-10.6Q110.24-16.99 113.61-19.14L113.61-19.14Q115.03-20.02 116.74-20.02L116.74-20.02Q119.37-20.02 119.91-17.97L119.91-17.97Q120.01-17.58 120.15-16.75L120.15-16.75Q120.45-14.79 121.23-14.31L121.23-14.31Q121.72-14.06 122.3-14.01L122.3-14.01Q123.96-13.92 124.4-15.38L124.4-15.38Q124.5-15.72 124.5-16.02L124.5-16.02Q124.5-18.51 121.33-20.12L121.33-20.12Q119.08-21.24 116.44-21.24L116.44-21.24Q109.9-21.24 107.31-15.92L107.31-15.92Q106.09-13.38 106.09-10.16ZM126.35-20.75L126.35-19.53 129.77-19.53 129.77-5.76Q130.11 0.34 135.39 0.54L135.39 0.54Q139.88 0.54 141-4.98L141-4.98Q141-5.03 141-5.08L141-5.08 139.68-5.32Q138.46-1.27 136.12-0.93L136.12-0.93Q133.48-1.03 133.43-4.69L133.43-4.69 133.43-19.53 141-19.53 141-20.75 133.43-20.75 133.43-26.42 129.77-25.39 129.77-20.75 126.35-20.75ZM152.72-1.22L152.72-1.22 150.28-1.22 150.28-20.75 142.71-20.75 142.71-19.53 146.61-19.53 146.61-4.15Q146.61-1.9 145.1-1.42L145.1-1.42Q144.37-1.22 142.71-1.22L142.71-1.22 142.71 0 153.94 0Q153.94-1.07 153.21-1.17L153.21-1.17Q152.96-1.22 152.72-1.22ZM150.86-27.88L150.86-27.88Q150.86-29.59 149.35-30.32L149.35-30.32Q148.76-30.57 148.22-30.57L148.22-30.57Q146.52-30.57 145.78-29L145.78-29Q145.54-28.47 145.54-27.88L145.54-27.88Q145.54-26.07 147.15-25.39L147.15-25.39Q147.69-25.2 148.22-25.2L148.22-25.2Q149.93-25.2 150.62-26.76L150.62-26.76Q150.86-27.29 150.86-27.88ZM167.66-1.22L167.66-1.22 164.24-1.22 164.24-19.53 169.85-19.53 169.85-20.75 164.24-20.75 164.24-21.04Q164.24-29.39 166.73-30.52L166.73-30.52Q167.27-30.76 167.9-30.76L167.9-30.76Q169.41-30.76 170.44-28.96L170.44-28.96Q171.32-27.39 171.71-27.1L171.71-27.1Q172.1-26.81 172.59-26.81L172.59-26.81Q174.2-26.81 174.49-28.17L174.49-28.17Q174.54-28.42 174.54-28.61L174.54-28.61Q174.54-30.42 172.1-31.45L172.1-31.45Q170.68-31.98 168.93-31.98L168.93-31.98Q164.34-31.98 162.09-28.17L162.09-28.17Q160.58-25.54 160.58-21.53L160.58-21.53 160.58-20.75 157.16-20.75 157.16-19.53 160.58-19.53 160.58-4.15Q160.58-1.9 159.31-1.46L159.31-1.46Q158.57-1.22 156.91-1.22L156.91-1.22 156.91 0 168.88 0Q168.88-1.07 168.14-1.17L168.14-1.17Q167.95-1.22 167.66-1.22ZM175.27 7.76L175.27 7.76Q174.49 7.76 174.1 6.59L174.1 6.59Q173.56 5.13 173.07 4.79L173.07 4.79Q172.63 4.49 172.05 4.49L172.05 4.49Q170.49 4.49 170.24 5.86L170.24 5.86Q170.19 6.05 170.19 6.2L170.19 6.2Q170.19 8.06 172.34 8.89L172.34 8.89Q173.32 9.28 174.39 9.28L174.39 9.28Q178.25 9.28 181.08 4.54L181.08 4.54Q182.25 2.64 183.33 0L183.33 0 190.55-17.82Q191.04-19.19 191.63-19.38L191.63-19.38Q191.97-19.48 192.41-19.48L192.41-19.48Q193.39-19.48 193.53-20.02L193.53-20.02Q193.63-20.31 193.63-20.75L193.63-20.75 186.21-20.75 186.21-19.48 189.77-19.48 183.52-3.86 176.83-19.48 180.1-19.48 180.1-20.75 170.58-20.75 170.58-19.48 172.98-19.48 181.76 0Q179.03 6.45 176.64 7.47L176.64 7.47Q175.95 7.76 175.27 7.76Z" opacity="1" transform="matrix(1,0,0,1,0,0)" fill="#ffcaca" class="wordmark-text-0" data-fill-palette-color="primary" id="text-0"></path></svg></g></svg></g></svg></g></svg></g></svg></g></svg></g></svg></g></svg></g><defs></defs></svg><rect width="395.52" height="247.2" fill="none" stroke="none" visibility="hidden"></rect></g></svg></g></svg>